<svg xmlns="http://www.w3.org/2000/svg" xmlns:xlink="http://www.w3.org/1999/xlink" width="40" height="40" viewBox="0 0 40 40">
  <defs>
    <clipPath id="clip-path">
      <rect width="40" height="40" fill="none"/>
    </clipPath>
  </defs>
  <g id="Icon_Payment" clip-path="url(#clip-path)">
    <rect id="Rectangle_41" data-name="Rectangle 41" width="40" height="40" rx="4" fill="rgba(0,197,105,0.07)"/>
    <g id="Group_197" data-name="Group 197" transform="translate(10 11)">
      <path id="Path_20" data-name="Path 20" d="M17.48,4.04,16.2,1.64A3.258,3.258,0,0,0,13.36,0a2.983,2.983,0,0,0-1.52.4L5.2,4h-2A3.209,3.209,0,0,0,0,7.2v7.6A3.209,3.209,0,0,0,3.2,18H16.8A3.209,3.209,0,0,0,20,14.8V7.2A3.223,3.223,0,0,0,17.48,4.04ZM12.8,2.16A1,1,0,0,1,13.36,2a1.153,1.153,0,0,1,1.04.64L15.12,4H9.4ZM18,14.8A1.2,1.2,0,0,1,16.8,16H3.2A1.2,1.2,0,0,1,2,14.8V7.2A1.2,1.2,0,0,1,3.2,6H16.8A1.2,1.2,0,0,1,18,7.2Z" fill="#111"/>
      <path id="Path_21" data-name="Path 21" d="M21,22H11a.99.99,0,0,1-1-1h0a.99.99,0,0,1,1-1H21a.99.99,0,0,1,1,1h0A1.016,1.016,0,0,1,21,22Z" transform="translate(-6 -12)" fill="#00c569"/>
    </g>
  </g>
</svg>
